<svg width="158" height="30" viewBox="0 0 158 30" fill="none" xmlns="http://www.w3.org/2000/svg">
<path d="M34.1747 23.4967L34.9021 22.7976V22.045L34.0676 22.8637L34.1747 23.4967Z" fill="#312783"/>
<path d="M37.2577 5.20081V6.49191L36.8955 6.80366H36.8389L36.8546 5.20081H37.2577Z" fill="#312783"/>
<path fill-rule="evenodd" clip-rule="evenodd" d="M25.1405 28.1699V16.1469L13.0639 28.1699V16.1469L1 28.1699V21.0625L20.1052 1.95734V14.0181L32.2352 1.95734V21.0877L25.1405 28.1699Z" fill="#312783" stroke="#E28128" stroke-miterlimit="10"/>
<path d="M25.1813 13.1301V1L17.2898 8.87572V29.0579L29.3663 17.0475V28.5603L37.242 20.7098V1.05353L25.1813 13.1301ZM36.4642 20.6972L30.1473 26.9984V15.2053L18.0708 27.2283V9.21267L24.3877 2.89886V14.9754L36.4642 2.89886V20.6972Z" fill="#F1890E"/>
<path fill-rule="evenodd" clip-rule="evenodd" d="M29.7603 27.5778V16.1469L17.6807 28.1699V9.0521L24.7786 1.95734V14.0181L36.8551 1.95734V20.4957L29.7603 27.5778Z" fill="white"/>
<path fill-rule="evenodd" clip-rule="evenodd" d="M34.3767 28.1699V9.0521L41.4715 1.95734H53.5637L46.469 9.0521H41.4715V21.0877L34.3767 28.1699Z" fill="#312783" stroke="#E28128" stroke-miterlimit="10"/>
<path d="M65.5653 16.4893H62.6282V9.69574H62.5518L60.8717 16.4893H58.1343L56.5012 9.69574H56.4248V16.4893H53.6345V7.84619H58.4809L59.5852 12.5886H59.6381L60.6955 7.84619H65.5418V16.4893H65.5653Z" fill="white"/>
<path d="M76.0922 16.4893H72.8026V11.6461H72.7497L70.5879 16.4893H66.7461V7.84619H70.0357V12.7902H70.0886L72.2504 7.84619H76.0922V16.4893Z" fill="white"/>
<path d="M99.8015 12.1559C99.8015 13.4007 99.402 14.4144 98.6207 15.2207C97.7161 16.181 96.3826 16.6375 94.679 16.6375C94.2267 16.6375 93.8272 16.6137 93.4454 16.5604C93.0694 16.507 92.6641 16.4063 92.1883 16.2818V13.9995C92.5173 14.124 92.8638 14.2247 93.2163 14.3018C93.5688 14.3789 93.8919 14.4026 94.1973 14.4026C94.773 14.4026 95.2782 14.2781 95.6307 14.0232C96.0066 13.7683 96.2357 13.4422 96.3591 12.9858H93.3984V11.2133H96.365C96.2416 10.8576 96.0654 10.579 95.8128 10.3537C95.4133 9.99806 94.8318 9.82022 94.1033 9.82022C93.8507 9.82022 93.5511 9.84393 93.2222 9.89728C92.8932 9.95063 92.5466 10.0514 92.1648 10.1996V7.89361L92.341 7.8699C92.8168 7.76912 93.2222 7.71576 93.5453 7.66834C93.8742 7.64463 94.1973 7.61499 94.5498 7.61499C95.9068 7.61499 96.9876 7.8699 97.8394 8.40342C98.5443 8.83617 99.073 9.41711 99.3961 10.1759C99.6722 10.8398 99.8015 11.4741 99.8015 12.1559Z" fill="white"/>
<path d="M109.846 16.4419H106.557V10.1285H104.947V11.6224C104.947 12.7902 104.894 13.6498 104.824 14.1596C104.701 14.9717 104.424 15.5527 104.043 15.9321C103.567 16.3885 102.885 16.5901 101.934 16.5901C101.405 16.5901 100.853 16.513 100.254 16.3885V14.1596C100.254 14.1596 100.354 14.1833 100.553 14.2129C100.753 14.2366 100.882 14.2663 100.982 14.2663C101.434 14.2663 101.734 13.9877 101.887 13.4304C102.01 13.0273 102.063 12.4167 102.063 11.5809C102.063 11.4267 102.063 11.2785 102.063 11.1244C102.063 10.9703 102.063 10.8221 102.063 10.668V10.5435V7.78101H109.846V16.4419Z" fill="white"/>
<path d="M128.709 16.5189H124.767L122.658 12.8435H122.605V16.5189H119.316V7.85211H122.605V11.2726H122.658L124.691 7.85211H128.433L125.542 11.9069L128.709 16.5189Z" fill="white"/>
<path d="M138.055 10.4071H135.165V16.513H131.875V10.4071H128.962V7.84619H138.055V10.4071Z" fill="white"/>
<path d="M147.343 10.9406C147.343 11.7528 147.067 12.4345 146.514 12.9917C145.862 13.6734 144.905 14.0054 143.677 14.0054H141.868V16.513H138.578V7.84619H143.624C144.858 7.84619 145.786 8.14852 146.438 8.80653C147.043 9.34599 147.343 10.0811 147.343 10.9406ZM144.03 10.9169C144.03 10.6146 143.93 10.3597 143.753 10.1818C143.501 9.95657 143.078 9.82615 142.52 9.82615H141.815V11.978H142.543C142.919 11.978 143.219 11.9247 143.448 11.8535C143.83 11.6757 144.03 11.3734 144.03 10.9169Z" fill="white"/>
<path d="M157.317 12.1559C157.317 13.549 156.888 14.6398 156.06 15.4519C155.208 16.2403 154.051 16.6434 152.518 16.6434C151.008 16.6434 149.833 16.2403 148.976 15.4519C148.147 14.6635 147.719 13.549 147.719 12.1559C147.719 10.7628 148.147 9.67207 148.976 8.85993C149.804 8.04779 150.985 7.6684 152.518 7.6684C154.028 7.6684 155.202 8.0715 156.06 8.85993C156.912 9.67207 157.317 10.7628 157.317 12.1559ZM153.851 12.1559C153.851 11.4979 153.775 10.9881 153.652 10.6087C153.428 10.0278 153.076 9.74914 152.524 9.74914C151.972 9.74914 151.596 10.0278 151.396 10.6087C151.272 10.9644 151.196 11.4979 151.196 12.1559C151.196 12.8139 151.272 13.3237 151.396 13.7031C151.619 14.2841 151.972 14.5627 152.524 14.5627C153.076 14.5627 153.452 14.2841 153.652 13.7031C153.798 13.3475 153.851 12.8436 153.851 12.1559Z" fill="white"/>
<path d="M118.511 16.5189H110.927V7.85211H118.435V9.90321H114.217V11.1481H118.235V13.1221H114.217V14.4678H118.511V16.5189Z" fill="white"/>
<path d="M55.4968 20.6745C56.002 20.6745 56.4249 20.8523 56.7539 21.2317L56.3779 21.6111C56.2252 21.457 56.1018 21.3562 55.9491 21.2792C55.7964 21.2258 55.6495 21.1784 55.4733 21.1784C55.3206 21.1784 55.1737 21.2317 55.0445 21.3029C54.9211 21.3799 54.8212 21.4807 54.7155 21.6052C54.6156 21.7297 54.5628 21.9075 54.5158 22.0854C54.4629 22.2632 54.4394 22.4648 54.4394 22.696C54.4394 22.9212 54.4629 23.0991 54.5158 23.3065C54.5686 23.4844 54.6391 23.6622 54.7155 23.7867C54.8154 23.9112 54.9152 24.012 55.0445 24.1187C55.1678 24.1958 55.3206 24.2432 55.4968 24.2432C55.673 24.2432 55.8257 24.2195 55.9726 24.1424C56.096 24.0653 56.2487 23.9646 56.4014 23.8104L56.7774 24.1661C56.6247 24.344 56.4484 24.4981 56.2487 24.5989C56.049 24.6996 55.7964 24.753 55.4968 24.753C55.2736 24.753 55.068 24.6996 54.8682 24.6285C54.6685 24.5514 54.5158 24.4269 54.363 24.2491C54.2103 24.0713 54.1104 23.8697 54.0106 23.6148C53.9342 23.3599 53.8872 23.0576 53.8872 22.7256C53.8872 22.3936 53.9401 22.115 54.0106 21.866C54.0869 21.6111 54.2103 21.4096 54.363 21.2317C54.5158 21.0539 54.692 20.9294 54.8682 20.8523C55.0445 20.6982 55.2677 20.6745 55.4968 20.6745Z" fill="white"/>
<path d="M62.229 20.7515L60.4667 22.5714L62.276 24.7292H61.6004L59.938 22.7018V24.7292H59.3623V20.7515H59.938V22.524L61.5711 20.7515H62.229Z" fill="white"/>
<path d="M68.08 22.6782C68.08 23.0101 68.0272 23.2888 67.9567 23.5377C67.8803 23.7926 67.757 23.9942 67.6042 24.172C67.4515 24.3499 67.2753 24.4744 67.0755 24.5751C66.8758 24.6759 66.6467 24.6996 66.4 24.6996C66.1474 24.6996 65.9242 24.6463 65.7244 24.5455C65.5247 24.4447 65.3485 24.3202 65.1957 24.1424C65.043 23.9646 64.9431 23.763 64.8668 23.5081C64.7904 23.2532 64.7434 22.9746 64.7434 22.6722C64.7434 22.3403 64.7963 22.0617 64.8668 21.8127C64.9431 21.5578 65.0665 21.3562 65.2192 21.1784C65.372 21.0005 65.5482 20.8761 65.7479 20.799C65.9477 20.6982 66.1768 20.6745 66.4 20.6745C66.6232 20.6745 66.8523 20.7279 67.052 20.799C67.2518 20.8998 67.428 21.0243 67.5807 21.1784C67.7335 21.3562 67.8568 21.5578 67.9332 21.8127C68.0272 22.0676 68.08 22.3462 68.08 22.6782ZM67.4985 22.6782C67.4985 22.4529 67.475 22.2454 67.4221 22.0676C67.3692 21.8897 67.2988 21.7119 67.2224 21.5874C67.1225 21.4629 67.0227 21.3325 66.8699 21.2554C66.7172 21.1784 66.5703 21.131 66.3941 21.131C66.2179 21.131 66.0651 21.1843 65.9183 21.2554C65.7949 21.3325 65.6657 21.4333 65.5658 21.5874C65.4895 21.7119 65.4131 21.8897 65.3661 22.0676C65.3132 22.2454 65.2897 22.447 65.2897 22.6485C65.2897 23.105 65.3896 23.4844 65.5893 23.763C65.789 24.0416 66.0651 24.1958 66.4176 24.1958C66.5938 24.1958 66.7701 24.1424 66.8934 24.0713C67.0462 23.9942 67.146 23.8697 67.2459 23.7393C67.3457 23.6148 67.3986 23.437 67.4456 23.2591C67.475 23.0813 67.4985 22.8797 67.4985 22.6782Z" fill="white"/>
<path d="M74.0305 22.6485C74.0305 23.0279 73.9776 23.3303 73.8777 23.5852C73.7779 23.8401 73.678 24.0653 73.5253 24.2195C73.3725 24.3736 73.1963 24.4981 73.0201 24.5752C72.8439 24.6522 72.6441 24.6996 72.4679 24.6996C72.2917 24.6996 72.1154 24.6759 71.9392 24.5989C71.7865 24.5455 71.6102 24.421 71.4634 24.2432H71.4399V25.8675L70.8877 26.1224V20.6982H71.4634V21.0776H71.4869C71.6631 20.8998 71.8628 20.799 72.0391 20.7219C72.2388 20.6449 72.415 20.6212 72.5913 20.6212C72.7675 20.6212 72.9437 20.6449 73.1434 20.7456C73.3197 20.8227 73.4724 20.9472 73.6193 21.1013C73.7426 21.2555 73.8719 21.4807 73.9482 21.7119C73.9835 21.9905 74.0305 22.2929 74.0305 22.6485ZM73.4783 22.6485C73.4783 22.1921 73.3784 21.8127 73.2022 21.5578C73.026 21.3029 72.7734 21.1547 72.4738 21.1547C72.2505 21.1547 72.0743 21.208 71.8981 21.3325C71.7219 21.4333 71.5985 21.5578 71.4693 21.7119V23.6859C71.5691 23.8401 71.7219 23.9646 71.8981 24.0653C72.0743 24.1661 72.2505 24.2432 72.4503 24.2432C72.8027 24.2432 73.0553 24.1187 73.2551 23.8401C73.3784 23.5377 73.4783 23.1346 73.4783 22.6485Z" fill="white"/>
<path d="M80.081 22.6782C80.081 23.0101 80.0281 23.2888 79.9577 23.5377C79.8813 23.7926 79.7579 23.9942 79.6052 24.172C79.4525 24.3499 79.2762 24.4744 79.0765 24.5751C78.8768 24.6759 78.6477 24.6996 78.401 24.6996C78.1542 24.6996 77.9251 24.6463 77.7254 24.5455C77.5257 24.4447 77.3494 24.3202 77.1967 24.1424C77.044 23.9646 76.9441 23.763 76.8677 23.5081C76.7914 23.2532 76.7444 22.9746 76.7444 22.6722C76.7444 22.3403 76.7973 22.0617 76.8677 21.8127C76.9382 21.5637 77.0675 21.3562 77.2202 21.1784C77.3729 21.0005 77.5492 20.8761 77.7489 20.799C77.9486 20.6982 78.1777 20.6745 78.401 20.6745C78.6242 20.6745 78.8533 20.7279 79.053 20.799C79.2527 20.8998 79.429 21.0243 79.5817 21.1784C79.7344 21.3562 79.8578 21.5578 79.9342 21.8127C80.034 22.0676 80.081 22.3462 80.081 22.6782ZM79.5288 22.6782C79.5288 22.4529 79.5053 22.2454 79.4525 22.0676C79.3996 21.8897 79.3291 21.7119 79.2527 21.5874C79.1529 21.4629 79.053 21.3325 78.9003 21.2554C78.7475 21.1784 78.6007 21.131 78.3951 21.131C78.2188 21.131 78.0661 21.1843 77.9193 21.2554C77.7959 21.3325 77.6667 21.4333 77.5668 21.5874C77.4669 21.7119 77.4141 21.8897 77.3671 22.0676C77.3142 22.2454 77.2907 22.447 77.2907 22.6485C77.2907 23.105 77.3906 23.4844 77.5903 23.763C77.79 24.0416 78.0661 24.1958 78.4186 24.1958C78.5948 24.1958 78.771 24.1424 78.8944 24.0713C79.0178 23.9942 79.147 23.8697 79.2469 23.7393C79.3467 23.6089 79.3996 23.437 79.4466 23.2591C79.5053 23.0813 79.5288 22.8797 79.5288 22.6782Z" fill="white"/>
<path d="M84.4279 20.6745C84.9331 20.6745 85.3561 20.8523 85.685 21.2317L85.3091 21.6111C85.1564 21.457 85.033 21.3562 84.8803 21.2792C84.7275 21.2258 84.5807 21.1784 84.4044 21.1784C84.2517 21.1784 84.1048 21.2317 83.9756 21.3029C83.8522 21.3799 83.7524 21.4807 83.6466 21.6052C83.5468 21.7297 83.4939 21.9075 83.4469 22.0854C83.394 22.2632 83.3705 22.4648 83.3705 22.696C83.3705 22.9212 83.394 23.0991 83.4469 23.3065C83.4998 23.4844 83.5703 23.6622 83.6466 23.7867C83.7465 23.9112 83.8464 24.012 83.9756 24.1187C84.099 24.1958 84.2517 24.2432 84.4279 24.2432C84.6042 24.2432 84.7569 24.2195 84.9038 24.1424C85.0565 24.0653 85.1799 23.9646 85.3326 23.8104L85.7085 24.1661C85.5558 24.344 85.3796 24.4981 85.1798 24.5989C84.9801 24.6996 84.7275 24.753 84.4279 24.753C84.2047 24.753 83.9991 24.6996 83.7994 24.6285C83.5996 24.5514 83.4469 24.4269 83.2942 24.2491C83.1414 24.0713 83.0416 23.8697 82.9417 23.6148C82.8654 23.3599 82.8184 23.0576 82.8184 22.7256C82.8184 22.3936 82.8712 22.115 82.9417 21.866C83.0181 21.6111 83.1414 21.4096 83.2942 21.2317C83.4469 21.0539 83.6231 20.9294 83.7994 20.8523C83.9991 20.7219 84.2047 20.6745 84.4279 20.6745Z" fill="white"/>
<path d="M89.3276 21.2317V24.7055H88.7519V21.2317H87.5417V20.7515H90.5318V21.2317H89.3276Z" fill="white"/>
<path d="M95.8302 23.4844C95.8302 23.8875 95.7068 24.1958 95.4777 24.3973C95.2251 24.5989 94.9255 24.6996 94.4967 24.6996H92.8167V20.7219H93.3688V22.2929H94.4497C94.8785 22.2929 95.2016 22.3936 95.4542 22.5952C95.7068 22.8264 95.8302 23.105 95.8302 23.4844ZM95.278 23.4844C95.278 23.2591 95.2016 23.0813 95.0783 22.9509C94.9549 22.8264 94.7493 22.773 94.5026 22.773H93.3982V24.1898H94.5026C94.7258 24.1898 94.9314 24.1365 95.0783 24.012C95.2016 23.9171 95.278 23.7393 95.278 23.4844Z" fill="white"/>
<path d="M105.828 21.7119L105.299 22.524L103.895 24.7292H103.343V20.7515H103.895V23.7926H103.919L104.471 22.9034L105.881 20.7515H106.433V24.7292H105.881V21.7119H105.828Z" fill="white"/>
<path d="M115.298 21.2317V24.7055H114.746V21.2317H113.541V20.7515H116.525V21.2317H115.298Z" fill="white"/>
<path d="M126.677 22.8026C126.5 23.0042 126.324 23.1346 126.101 23.2354C125.901 23.3124 125.702 23.3599 125.525 23.3599C125.096 23.3599 124.773 23.2591 124.544 23.0279C124.321 22.8026 124.215 22.4173 124.215 21.9134V20.7456H124.768V21.8364C124.768 22.192 124.844 22.4707 124.967 22.6248C125.091 22.8026 125.32 22.8797 125.619 22.8797C125.796 22.8797 125.972 22.8263 126.171 22.7552C126.348 22.6781 126.524 22.5299 126.677 22.3225V20.7752H127.229V24.7292H126.7L126.677 22.8026Z" fill="white"/>
<path d="M132.956 24.7055V22.8797H130.947V24.7055H130.389V20.7515H130.947V22.3699H132.956V20.7515H133.532V24.7055H132.956Z" fill="white"/>
<path d="M139.658 22.6782C139.658 23.0101 139.606 23.2888 139.535 23.5377C139.465 23.7867 139.335 23.9942 139.183 24.172C139.03 24.3499 138.854 24.4744 138.654 24.5751C138.454 24.6759 138.225 24.6996 137.978 24.6996C137.726 24.6996 137.503 24.6463 137.303 24.5455C137.103 24.4447 136.927 24.3202 136.774 24.1424C136.621 23.9646 136.522 23.763 136.445 23.5081C136.369 23.2532 136.322 22.9746 136.322 22.6722C136.322 22.3403 136.375 22.0617 136.445 21.8127C136.516 21.5637 136.645 21.3562 136.798 21.1784C136.95 21.0005 137.127 20.8761 137.326 20.799C137.526 20.6982 137.755 20.6745 137.978 20.6745C138.202 20.6745 138.431 20.7279 138.63 20.799C138.83 20.8998 139.006 21.0243 139.159 21.1784C139.312 21.3562 139.435 21.5578 139.512 21.8127C139.611 22.0676 139.658 22.3462 139.658 22.6782ZM139.106 22.6782C139.106 22.4529 139.083 22.2454 139.03 22.0676C138.977 21.8897 138.906 21.7119 138.807 21.5874C138.707 21.4629 138.607 21.3325 138.454 21.2554C138.301 21.1784 138.155 21.131 137.978 21.131C137.802 21.131 137.649 21.1843 137.503 21.2554C137.379 21.3325 137.25 21.4333 137.15 21.5874C137.05 21.7119 136.997 21.8897 136.95 22.0676C136.897 22.2454 136.874 22.447 136.874 22.6485C136.874 23.105 136.974 23.4844 137.174 23.763C137.373 24.0416 137.649 24.1958 138.002 24.1958C138.178 24.1958 138.354 24.1424 138.478 24.0713C138.601 23.9942 138.73 23.8697 138.83 23.7393C138.93 23.6089 138.983 23.437 139.03 23.2591C139.083 23.0813 139.106 22.8797 139.106 22.6782Z" fill="white"/>
<path d="M144.006 20.6745C144.511 20.6745 144.934 20.8523 145.263 21.2317L144.887 21.6111C144.734 21.457 144.611 21.3562 144.458 21.2792C144.305 21.2258 144.158 21.1784 143.982 21.1784C143.829 21.1784 143.682 21.2317 143.553 21.3029C143.43 21.3799 143.33 21.4807 143.224 21.6052C143.124 21.7297 143.072 21.9075 143.025 22.0854C142.972 22.2632 142.948 22.4648 142.948 22.696C142.948 22.9212 142.972 23.0991 143.025 23.3065C143.077 23.4844 143.148 23.6622 143.224 23.7867C143.324 23.9112 143.424 24.012 143.553 24.1187C143.677 24.1958 143.829 24.2432 144.006 24.2432C144.182 24.2432 144.335 24.2195 144.481 24.1424C144.634 24.0653 144.757 23.9646 144.91 23.8104L145.286 24.1661C145.133 24.344 144.957 24.4981 144.757 24.5989C144.558 24.6996 144.305 24.753 144.006 24.753C143.782 24.753 143.577 24.6996 143.377 24.6285C143.177 24.5514 143.025 24.4269 142.872 24.2491C142.719 24.0713 142.619 23.8697 142.519 23.6148C142.443 23.3599 142.396 23.0576 142.396 22.7256C142.396 22.3936 142.449 22.115 142.519 21.866C142.59 21.6171 142.719 21.4096 142.872 21.2317C143.025 21.0539 143.201 20.9294 143.377 20.8523C143.553 20.7219 143.776 20.6745 144.006 20.6745Z" fill="white"/>
<path d="M149.128 21.2317V24.7055H148.576V21.2317H147.342V20.7515H150.362V21.2317H149.128Z" fill="white"/>
<path d="M155.66 23.4844C155.66 23.8875 155.537 24.1958 155.308 24.3973C155.055 24.5989 154.732 24.6996 154.327 24.6996H152.647V20.7219H153.199V22.2929H154.28C154.709 22.2929 155.061 22.3936 155.284 22.5952C155.531 22.8264 155.66 23.105 155.66 23.4844ZM155.108 23.4844C155.108 23.2591 155.032 23.0813 154.908 22.9509C154.756 22.8264 154.579 22.773 154.333 22.773H153.228V24.1898H154.333C154.556 24.1898 154.762 24.1365 154.908 24.012C155.032 23.9171 155.108 23.7393 155.108 23.4844Z" fill="white"/>
<path d="M89.251 7.11115L85.1566 11.243C84.9804 11.4208 84.9804 11.6757 85.1566 11.8239C85.3093 11.9781 85.5854 11.9781 85.7323 11.8239L89.8267 7.6921C90.0029 7.53797 90.0029 7.25935 89.8267 7.11115C89.6798 6.96295 89.4272 6.96295 89.251 7.11115Z" fill="#1E1A73"/>
<path d="M89.251 9.69575L85.1566 13.8276C84.9804 13.9817 84.9804 14.2603 85.1566 14.4085C85.3093 14.5627 85.5854 14.5627 85.7323 14.4085L89.8267 10.2767C90.0029 10.0988 90.0029 9.84395 89.8267 9.69575C89.6798 9.54754 89.4272 9.54754 89.251 9.69575Z" fill="#1E1A73"/>
<path d="M89.251 12.2863L85.1566 16.4182C84.9804 16.596 84.9804 16.8509 85.1566 16.9991C85.3093 17.1532 85.5854 17.1532 85.7323 16.9991L89.8267 12.8673C90.0029 12.7131 90.0029 12.4345 89.8267 12.2863C89.6798 12.1322 89.4272 12.1322 89.251 12.2863Z" fill="#1E1A73"/>
<path d="M84.2811 10.2056H80.5333V16.3885H77.2437V7.74542H84.2518V10.2056H84.2811Z" fill="white"/>
<path d="M77.2729 16.1335V16.4892H80.5332V16.2106L77.2729 16.1335Z" fill="white"/>
<path d="M121.854 22.6248C121.854 22.9568 121.801 23.2591 121.73 23.514C121.654 23.7689 121.531 23.9942 121.378 24.172C121.225 24.3499 121.049 24.4744 120.849 24.5751C120.649 24.6759 120.42 24.7293 120.174 24.7293C119.927 24.7293 119.698 24.6759 119.498 24.5751C119.298 24.4744 119.122 24.3499 118.969 24.172C118.817 23.9942 118.717 23.7689 118.64 23.514C118.564 23.2591 118.517 22.9805 118.517 22.6545C118.517 22.3225 118.57 22.0202 118.64 21.7653C118.717 21.5104 118.84 21.2851 118.993 21.131C119.146 20.9531 119.322 20.8286 119.522 20.7516C119.721 20.6508 119.95 20.6271 120.174 20.6271C120.397 20.6271 120.626 20.6804 120.826 20.7516C121.025 20.8523 121.202 20.9768 121.354 21.1547C121.507 21.3325 121.63 21.5341 121.707 21.789C121.801 22.0142 121.854 22.3225 121.854 22.6248ZM121.272 22.6485C121.272 22.4233 121.249 22.2158 121.196 22.038C121.143 21.8601 121.072 21.6823 120.973 21.5578C120.873 21.4333 120.773 21.3029 120.62 21.2258C120.467 21.1487 120.321 21.1013 120.144 21.1013C119.968 21.1013 119.815 21.1547 119.668 21.2258C119.545 21.3029 119.416 21.4274 119.316 21.5578C119.216 21.6823 119.163 21.8601 119.116 22.038C119.063 22.2158 119.04 22.4173 119.04 22.6485C119.04 23.1287 119.14 23.5081 119.34 23.7867C119.539 24.0653 119.815 24.2195 120.168 24.2195C120.344 24.2195 120.52 24.1661 120.644 24.095C120.767 24.0179 120.896 23.8934 120.996 23.763C121.096 23.6089 121.149 23.4607 121.196 23.2828C121.249 23.0576 121.272 22.856 121.272 22.6485Z" fill="white"/>
</svg>
