<?xml version="1.0" encoding="utf-8"?>
<!-- Generator: Adobe Illustrator 23.0.5, SVG Export Plug-In . SVG Version: 6.00 Build 0)  -->
<svg version="1.1" id="Layer_1" xmlns="http://www.w3.org/2000/svg" xmlns:xlink="http://www.w3.org/1999/xlink" x="0px" y="0px"
	 viewBox="0 0 639 376.9" style="enable-background:new 0 0 639 376.9;" xml:space="preserve">
<style type="text/css">
	.st0{fill:#2E3192;}
	.st1{fill-rule:evenodd;clip-rule:evenodd;fill:#2E3192;}
	.st2{fill-rule:evenodd;clip-rule:evenodd;fill:#FFFFFF;}
</style>
<path class="st0" d="M410.3-164.4"/>
<g>
	<g>
		<path d="M87.6,306H70.2v-39.8h-0.4L59.7,306h-16L34,266.2h-0.4V306H16.9v-50.7h28.7l6.6,27.7h0.3l6.3-27.7h28.7V306H87.6z"/>
		<path d="M149.7,306h-19.4v-28.4H130L117.2,306H94.6v-50.7H114v29h0.3l12.8-29h22.6C149.7,255.3,149.7,306,149.7,306z"/>
		<path d="M289.9,280.6c0,7.3-2.3,13.3-7,17.9c-5.4,5.5-13.3,8.3-23.3,8.3c-2.6,0-5.1-0.1-7.3-0.4c-2.2-0.3-4.7-0.9-7.4-1.6v-13.6
			c1.9,0.7,3.9,1.3,6.1,1.7c2,0.4,4.1,0.6,5.8,0.6c3.5,0,6.3-0.7,8.5-2.2c2.2-1.5,3.6-3.5,4.4-6H252v-10.3h17.6
			c-0.7-2-1.7-3.8-3.2-5c-2.5-2-5.8-3.1-10.1-3.1c-1.5,0-3.2,0.1-5.2,0.4c-1.9,0.3-4.1,0.9-6.3,1.9V256l1-0.1c2.8-0.6,5.1-1,7.1-1.2
			c1.9-0.1,3.9-0.3,6-0.3c8,0,14.4,1.5,19.5,4.5c4.2,2.5,7.3,6,9.2,10.5C289.1,272.8,289.9,276.5,289.9,280.6L289.9,280.6z"/>
		<path d="M349.3,305.7h-19.5v-37h-9.5v8.7c0,6.8-0.3,11.8-0.7,14.9c-0.7,4.8-2.3,8.3-4.7,10.5c-2.8,2.6-6.8,3.9-12.4,3.9
			c-3.2,0-6.4-0.4-9.9-1.2v-13.1c0,0,0.7,0.1,1.9,0.3c1.2,0.1,2,0.3,2.5,0.3c2.6,0,4.4-1.6,5.4-4.8c0.7-2.3,1-6,1-10.8
			c0-0.9,0-1.7,0-2.6s0-1.7,0-2.6v-0.7v-16.2h45.9V305.7z"/>
		<path d="M460.8,306.1h-23.2l-12.5-21.6h-0.3v21.6h-19.4v-50.9h19.4v20h0.3l12-20h22.2L442.1,279L460.8,306.1z"/>
		<path d="M516,270.3h-17.2v35.9h-19.4v-35.9h-17.2v-15H516L516,270.3L516,270.3z"/>
		<path d="M571.1,273.5c0,4.7-1.6,8.7-4.8,12c-3.9,3.9-9.5,6-16.8,6h-10.6v14.7h-19.5v-50.9h29.7c7.3,0,12.8,1.9,16.8,5.5
			C569.2,264.2,571.1,268.4,571.1,273.5L571.1,273.5z M551.4,273.3c0-1.9-0.6-3.2-1.6-4.2c-1.5-1.3-3.9-2-7.3-2h-4.2v12.7h4.2
			c2.2,0,3.9-0.3,5.2-0.7C550.3,277.9,551.4,276,551.4,273.3L551.4,273.3z"/>
		<path d="M630,280.6c0,8.2-2.5,14.6-7.4,19.2c-5,4.7-12,7-20.8,7c-9,0-15.9-2.3-20.8-7c-5-4.7-7.4-11.1-7.4-19.2s2.5-14.6,7.4-19.2
			c5-4.7,12-7,20.8-7c8.9,0,15.9,2.3,20.8,7C627.5,266,630,272.5,630,280.6L630,280.6z M609.6,280.6c0-3.9-0.4-6.8-1.2-9
			c-1.3-3.4-3.5-5.1-6.7-5.1c-3.2,0-5.5,1.6-6.7,5c-0.7,2.2-1.2,5.1-1.2,9s0.4,6.8,1.2,9c1.3,3.4,3.5,5.1,6.7,5.1
			c3.2,0,5.5-1.6,6.7-5C609.2,287.6,609.6,284.6,609.6,280.6L609.6,280.6z"/>
		<path d="M400.6,306.1h-44.9v-50.9H400v12h-24.9v7.3h23.8v11.7h-23.8v7.9h25.4v12.1H400.6z"/>
		<path d="M28,339.2c3.1,0,5.5,1,7.4,3.2l-2.2,2.2c-0.9-0.9-1.7-1.6-2.6-1.9c-0.9-0.4-1.7-0.6-2.8-0.6c-1,0-1.9,0.3-2.6,0.7
			c-0.7,0.4-1.5,1-1.9,1.9c-0.6,0.7-0.9,1.7-1.2,2.8c-0.3,1-0.4,2.2-0.4,3.5s0.1,2.5,0.4,3.5c0.3,1,0.7,2,1.2,2.8
			c0.6,0.9,1.2,1.5,2,1.9c0.7,0.4,1.6,0.7,2.8,0.7c1,0,1.9-0.1,2.8-0.6c0.9-0.4,1.6-1,2.5-1.9l2.2,2c-0.9,1-1.9,1.9-3.2,2.5
			c-1.2,0.6-2.6,1-4.4,1c-1.3,0-2.5-0.3-3.6-0.7c-1.2-0.4-2.2-1.2-3.1-2.2c-0.9-1-1.5-2.2-2-3.6c-0.4-1.5-0.7-3.2-0.7-5.2
			c0-1.9,0.3-3.6,0.7-5c0.4-1.5,1.2-2.8,2-3.6c0.9-1,1.9-1.7,3.1-2.3C25.4,339.4,26.5,339.2,28,339.2"/>
		<polygon points="67.8,339.6 57.4,350.4 68.1,363 64.1,363 54.2,351 54.2,363 50.9,363 50.9,339.6 54.2,339.6 54.2,350 64,339.6 		
			"/>
		<path d="M102.3,350.9c0,1.9-0.3,3.6-0.7,5.1c-0.6,1.5-1.2,2.8-2,3.8c-0.9,1-1.9,1.7-3.2,2.3c-1.2,0.6-2.5,0.9-3.9,0.9
			c-1.5,0-2.8-0.3-3.9-0.9c-1.2-0.6-2.2-1.3-3.1-2.3c-0.9-1-1.5-2.3-2-3.8c-0.4-1.5-0.7-3.1-0.7-5c0-1.9,0.3-3.6,0.7-5.1
			c0.4-1.5,1.2-2.8,2-3.6c0.9-1,1.9-1.7,3.1-2.2c1.2-0.6,2.5-0.7,3.9-0.7c1.5,0,2.8,0.3,3.9,0.7c1.2,0.6,2.2,1.3,3.2,2.3
			c0.9,1,1.6,2.2,2,3.6C102,347.4,102.3,349.1,102.3,350.9 M98.9,351c0-1.3-0.1-2.5-0.4-3.5c-0.3-1-0.7-2-1.3-2.8
			c-0.6-0.7-1.3-1.5-2-1.9c-0.9-0.4-1.7-0.7-2.9-0.7c-1,0-1.9,0.3-2.8,0.7c-0.9,0.4-1.5,1.2-2,1.9c-0.6,0.7-0.9,1.7-1.2,2.8
			c-0.3,1-0.4,2.2-0.4,3.5c0,2.8,0.6,5,1.7,6.6c1.2,1.6,2.8,2.5,4.8,2.5c1,0,2-0.3,2.9-0.7c0.9-0.4,1.5-1.2,2-1.9
			c0.6-0.9,1-1.7,1.2-2.8C98.9,353.3,98.9,352.2,98.9,351"/>
		<path d="M137.6,350.9c0,2.2-0.3,3.9-0.9,5.5c-0.6,1.5-1.3,2.8-2.2,3.6c-0.9,1-1.9,1.6-2.9,2c-1.2,0.4-2.2,0.7-3.4,0.7
			c-1,0-2.2-0.1-3.1-0.6c-1-0.4-1.9-1-2.9-2h-0.1v9.5l-3.4,1.6v-31.8h3.4v2.3h0.1c1-1,2.2-1.7,3.2-2c1.2-0.4,2.2-0.6,3.2-0.6
			s2.2,0.1,3.2,0.7c1,0.4,1.9,1.2,2.8,2c0.9,1,1.5,2.2,1.9,3.6C137.3,346.9,137.6,348.7,137.6,350.9 M134.2,350.7
			c0-2.8-0.6-4.8-1.7-6.4c-1.2-1.6-2.6-2.3-4.4-2.3c-1.3,0-2.5,0.3-3.5,1c-1,0.6-1.9,1.5-2.5,2.2v11.5c0.6,0.9,1.5,1.6,2.5,2.2
			c1,0.6,2,1,3.2,1c2,0,3.6-0.7,4.7-2.3C133.8,356,134.2,353.6,134.2,350.7"/>
		<path d="M173.4,350.9c0,1.9-0.3,3.6-0.7,5.1c-0.6,1.5-1.2,2.8-2,3.8c-0.9,1-1.9,1.7-3.2,2.3c-1.2,0.6-2.5,0.9-3.9,0.9
			s-2.8-0.3-3.9-0.9s-2.2-1.3-3.1-2.3c-0.9-1-1.5-2.3-2-3.8c-0.4-1.5-0.7-3.1-0.7-5c0-1.9,0.3-3.6,0.7-5.1c0.4-1.5,1.2-2.8,2-3.6
			c0.9-1,1.9-1.7,3.1-2.2c1.2-0.6,2.5-0.7,3.9-0.7s2.8,0.3,3.9,0.7c1.2,0.6,2.2,1.3,3.1,2.3c0.9,1,1.6,2.2,2,3.6
			C173.1,347.4,173.4,349.1,173.4,350.9 M170.1,351c0-1.3-0.1-2.5-0.4-3.5c-0.3-1-0.7-2-1.3-2.8c-0.6-0.7-1.3-1.5-2-1.9
			c-0.9-0.4-1.7-0.7-2.9-0.7c-1,0-1.9,0.3-2.8,0.7c-0.7,0.4-1.5,1.2-2,1.9s-0.9,1.7-1.2,2.8c-0.3,1-0.4,2.2-0.4,3.5
			c0,2.8,0.6,5,1.7,6.6c1.2,1.6,2.8,2.5,4.8,2.5c1,0,2-0.3,2.9-0.7c0.9-0.4,1.5-1.2,2-1.9c0.6-0.9,1-1.7,1.2-2.8
			C169.9,353.3,170.1,352.2,170.1,351"/>
		<path d="M199.1,339.2c3.1,0,5.5,1,7.4,3.2l-2.2,2.2c-0.9-0.9-1.7-1.6-2.6-1.9c-0.9-0.4-1.7-0.6-2.8-0.6s-1.9,0.3-2.6,0.7
			c-0.7,0.4-1.5,1-1.9,1.9c-0.6,0.7-0.9,1.7-1.2,2.8c-0.3,1-0.4,2.2-0.4,3.5s0.1,2.5,0.4,3.5c0.3,1,0.7,2,1.2,2.8
			c0.6,0.9,1.2,1.5,2,1.9c0.7,0.4,1.7,0.7,2.8,0.7s1.9-0.1,2.8-0.6c0.9-0.4,1.6-1,2.5-1.9l2.2,2c-0.9,1-1.9,1.9-3.2,2.5
			c-1.2,0.6-2.6,1-4.4,1c-1.3,0-2.5-0.3-3.6-0.7c-1.2-0.4-2.2-1.2-3.1-2.2c-0.9-1-1.5-2.2-2-3.6c-0.4-1.5-0.7-3.2-0.7-5.2
			c0-1.9,0.3-3.6,0.7-5c0.4-1.5,1.2-2.8,2-3.6c0.9-1,1.9-1.7,3.1-2.3C196.4,339.5,197.8,339.2,199.1,339.2"/>
		<polygon points="227.9,342.4 227.9,362.8 224.6,362.8 224.6,342.4 217.4,342.4 217.4,339.6 235.2,339.6 235.2,342.4 		"/>
		<path d="M266.5,355.7c0,2.5-0.7,4.2-2.2,5.4c-1.5,1.2-3.4,1.7-5.8,1.7h-9.9v-23.2h3.4v9.2h6.4c2.5,0,4.5,0.6,6,1.9
			C265.8,351.7,266.5,353.5,266.5,355.7 M263.2,355.8c0-1.3-0.4-2.3-1.2-3.1c-0.9-0.7-1.9-1-3.5-1H252v8.3h6.6c1.5,0,2.5-0.3,3.4-1
			S263.2,357.1,263.2,355.8"/>
		<polygon points="325.6,345.2 322.5,350.1 314.2,363 310.8,363 310.8,339.6 314.2,339.6 314.2,357.4 314.3,357.4 317.5,352.3 
			325.9,339.6 329.2,339.6 329.2,363 325.9,363 325.9,345.2 		"/>
		<polygon points="381.7,342.4 381.7,362.8 378.3,362.8 378.3,342.4 371.2,342.4 371.2,339.6 389,339.6 389,342.4 		"/>
		<path d="M448.9,351.7c-1,1.2-2,1.9-3.4,2.5c-1.2,0.6-2.3,0.7-3.4,0.7c-2.5,0-4.5-0.6-5.7-2c-1.3-1.3-1.9-3.5-1.9-6.6v-6.8h3.4v6.3
			c0,2,0.4,3.6,1.2,4.7c0.7,1,2,1.5,3.8,1.5c1,0,2.2-0.3,3.4-0.7c1-0.6,2-1.3,2.9-2.6v-9h3.4v23.2h-3.4L448.9,351.7L448.9,351.7z"/>
		<polygon points="486,362.8 486,352.2 474.1,352.2 474.1,362.8 470.7,362.8 470.7,339.6 474.1,339.6 474.1,349.1 486,349.1 
			486,339.6 489.4,339.6 489.4,362.8 		"/>
		<path d="M525.7,350.9c0,1.9-0.3,3.6-0.7,5.1c-0.6,1.5-1.2,2.8-2,3.8c-0.9,1-1.9,1.7-3.2,2.3c-1.2,0.6-2.5,0.9-3.9,0.9
			s-2.8-0.3-3.9-0.9c-1.2-0.6-2.2-1.3-3.1-2.3c-0.9-1-1.5-2.3-2-3.8c-0.4-1.5-0.7-3.1-0.7-5c0-1.9,0.3-3.6,0.7-5.1
			c0.4-1.5,1.2-2.8,2-3.6c0.9-1,1.9-1.7,3.1-2.2c1.2-0.6,2.5-0.7,3.9-0.7s2.8,0.3,3.9,0.7c1.2,0.6,2.3,1.3,3.2,2.3
			c0.9,1,1.6,2.2,2,3.6C525.4,347.4,525.7,349.1,525.7,350.9 M522.3,351c0-1.3-0.1-2.5-0.4-3.5c-0.3-1-0.7-2-1.3-2.8s-1.3-1.5-2-1.9
			c-0.9-0.4-1.9-0.7-2.9-0.7c-1,0-2,0.3-2.8,0.7c-0.9,0.4-1.5,1.2-2,1.9s-0.9,1.7-1.2,2.8c-0.3,1-0.4,2.2-0.4,3.5
			c0,2.8,0.6,5,1.7,6.6c1.2,1.6,2.8,2.5,4.8,2.5c1.2,0,2-0.3,2.9-0.7c0.9-0.4,1.5-1.2,2-1.9c0.6-0.9,1-1.7,1.2-2.8
			C522.2,353.3,522.3,352.2,522.3,351"/>
		<path d="M551.3,339.2c3.1,0,5.5,1,7.4,3.2l-2.2,2.2c-0.9-0.9-1.7-1.6-2.6-1.9c-0.9-0.4-1.7-0.6-2.8-0.6c-1,0-1.9,0.3-2.6,0.7
			c-0.7,0.4-1.5,1-1.9,1.9c-0.6,0.7-0.9,1.7-1.2,2.8c-0.3,1-0.4,2.2-0.4,3.5s0.1,2.5,0.4,3.5c0.3,1,0.7,2,1.2,2.8
			c0.6,0.9,1.2,1.5,2,1.9c0.7,0.4,1.6,0.7,2.6,0.7c1,0,1.9-0.1,2.8-0.6c0.9-0.4,1.6-1,2.5-1.9l2.2,2c-0.9,1-1.9,1.9-3.2,2.5
			c-1.2,0.6-2.6,1-4.4,1c-1.3,0-2.5-0.3-3.6-0.7c-1.2-0.4-2.2-1.2-3.1-2.2c-0.9-1-1.6-2.2-2-3.6s-0.7-3.2-0.7-5.2
			c0-1.9,0.3-3.6,0.7-5c0.4-1.5,1.2-2.8,2-3.6c0.9-1,1.9-1.7,3.1-2.3C548.7,339.5,550,339.2,551.3,339.2"/>
		<polygon points="581.6,342.4 581.6,362.8 578.3,362.8 578.3,342.4 571.1,342.4 571.1,339.6 588.9,339.6 588.9,342.4 		"/>
		<path d="M620.2,355.7c0,2.5-0.7,4.2-2.2,5.4c-1.5,1.2-3.4,1.7-5.8,1.7h-9.9v-23.2h3.4v9.2h6.4c2.5,0,4.5,0.6,6,1.9
			C619.5,351.7,620.2,353.5,620.2,355.7 M616.9,355.8c0-1.3-0.4-2.3-1.2-3.1c-0.9-0.7-1.9-1-3.5-1h-6.6v8.3h6.6c1.5,0,2.5-0.3,3.4-1
			C616.4,358.3,616.9,357.1,616.9,355.8"/>
		<path class="st0" d="M227.6,251l-24.2,24.2c-1,1-1,2.5,0,3.5c0.9,0.9,2.5,0.9,3.5,0l24.2-24.2c1-0.9,1-2.5,0-3.5
			C230.1,250.2,228.7,250.2,227.6,251z"/>
		<path class="st0" d="M227.6,266.2l-24.2,24.2c-1,1-1,2.5,0,3.5c0.9,1,2.5,1,3.5,0l24.2-24.2c1-1,1-2.5,0-3.5
			C230.1,265.2,228.7,265.2,227.6,266.2z"/>
		<path class="st0" d="M227.6,281.4l-24.2,24.2c-1,1-1,2.5,0,3.5c0.9,1,2.5,1,3.5,0l24.2-24.2c1-0.9,1-2.5,0-3.4
			C230.1,280.3,228.7,280.3,227.6,281.4z"/>
		<g>
			<path d="M198.2,269.1h-22v36.1h-19.5v-50.7H198v14.6H198.2z"/>
			<polygon points="156.7,303.8 156.7,306 176,306 176,304.4 			"/>
		</g>
		<path d="M420.3,350.7c0,1.9-0.3,3.6-0.7,5.1c-0.6,1.5-1.2,2.8-2,3.8c-0.9,1-1.9,1.9-3.2,2.3c-1.2,0.6-2.5,0.9-3.9,0.9
			s-2.8-0.3-3.9-0.9c-1.2-0.6-2.2-1.3-3.1-2.3c-0.9-1-1.5-2.3-2-3.8c-0.4-1.5-0.7-3.2-0.7-5.1c0-1.9,0.3-3.6,0.7-5.2
			c0.4-1.5,1.2-2.8,2-3.8c0.9-1,1.9-1.7,3.1-2.3c1.2-0.6,2.5-0.7,3.9-0.7s2.8,0.3,3.9,0.9c1.2,0.6,2.3,1.3,3.2,2.3
			c0.9,1,1.6,2.3,2,3.8C420,347.1,420.3,348.8,420.3,350.7 M416.9,350.7c0-1.3-0.1-2.5-0.4-3.6c-0.3-1.2-0.7-2-1.3-2.9
			c-0.6-0.7-1.3-1.5-2-1.9c-0.9-0.4-1.9-0.7-2.9-0.7c-1,0-2,0.3-2.8,0.7c-0.9,0.4-1.5,1.2-2,1.9c-0.6,0.9-0.9,1.7-1.2,2.9
			c-0.3,1.2-0.4,2.3-0.4,3.5c0,2.8,0.6,5.1,1.7,6.7c1.2,1.6,2.8,2.5,4.8,2.5c1.2,0,2-0.3,2.9-0.7c0.9-0.4,1.5-1.2,2-2
			c0.6-0.9,1-1.7,1.2-2.9C416.8,353.2,416.9,352,416.9,350.7"/>
	</g>
	<g>
		<polygon class="st0" points="381.4,179.2 386.9,173.9 386.9,168.3 380.7,174.5 		"/>
		<polygon class="st0" points="404.8,40.7 404.8,50.6 402.1,52.9 401.6,52.9 401.7,40.7 		"/>
		<polygon class="st1" points="313.1,214.6 313.1,123.6 221.7,214.6 221.7,214.6 221.7,214.6 221.7,123.6 130.4,214.6 130.4,160.8 
			275,16.2 275,107.5 366.8,16.2 366.8,161.1 		"/>
		<path class="st0" d="M313.3,100.8V9l-59.7,59.6v152.7l91.4-90.9v87.1l59.6-59.5V9.4L313.3,100.8z M398.8,158L351,205.7v-89.2
			l-91.4,91V71.2l47.8-47.8v91.4l91.4-91.4L398.8,158L398.8,158z"/>
		<g>
			<polygon class="st2" points="348,209.1 348,208.9 348,123.6 256.6,214.6 256.6,214.6 256.6,214.6 256.6,69.9 310.4,16.2 
				310.4,107.5 401.7,16.2 401.7,155.5 			"/>
			<polygon class="st2" points="348,208.4 348,209.9 385.6,172.3 385.7,167.9 357.6,184.6 			"/>
		</g>
		<polygon class="st1" points="384.4,214.6 384.4,69.9 438.1,16.2 529.6,16.2 475.9,69.9 438.1,69.9 438.1,161 		"/>
	</g>
</g>
</svg>
